<svg width="38" height="38" viewBox="0 0 38 38" fill="none" xmlns="http://www.w3.org/2000/svg">
<path d="M17.4167 30.0833L33.25 30.0833" stroke="#F5F6F8" stroke-width="3" stroke-linecap="round" stroke-linejoin="round"/>
<path d="M4.75 30.0833H9.5" stroke="#F5F6F8" stroke-width="3" stroke-linecap="round" stroke-linejoin="round"/>
<path d="M13.4583 34.0417C15.6445 34.0417 17.4167 32.2695 17.4167 30.0833C17.4167 27.8972 15.6445 26.125 13.4583 26.125C11.2722 26.125 9.5 27.8972 9.5 30.0833C9.5 32.2695 11.2722 34.0417 13.4583 34.0417Z" stroke="#F5F6F8" stroke-width="3" stroke-linecap="round" stroke-linejoin="round"/>
<path d="M30.0833 19H33.25" stroke="#F5F6F8" stroke-width="3" stroke-linecap="round" stroke-linejoin="round"/>
<path d="M4.75 19H22.1667" stroke="#F5F6F8" stroke-width="3" stroke-linecap="round" stroke-linejoin="round"/>
<path d="M26.125 22.9583C28.3111 22.9583 30.0833 21.1861 30.0833 19C30.0833 16.8139 28.3111 15.0417 26.125 15.0417C23.9389 15.0417 22.1667 16.8139 22.1667 19C22.1667 21.1861 23.9389 22.9583 26.125 22.9583Z" stroke="#F5F6F8" stroke-width="3" stroke-linecap="round" stroke-linejoin="round"/>
<path d="M20.5833 7.91667H33.25" stroke="#F5F6F8" stroke-width="3" stroke-linecap="round" stroke-linejoin="round"/>
<path d="M4.75 7.91667H12.6667" stroke="#F5F6F8" stroke-width="3" stroke-linecap="round" stroke-linejoin="round"/>
<path d="M16.625 11.875C18.8111 11.875 20.5833 10.1028 20.5833 7.91666C20.5833 5.73053 18.8111 3.95833 16.625 3.95833C14.4389 3.95833 12.6667 5.73053 12.6667 7.91666C12.6667 10.1028 14.4389 11.875 16.625 11.875Z" stroke="#F5F6F8" stroke-width="3" stroke-linecap="round" stroke-linejoin="round"/>
</svg>
